# xmcd
#
# Track frame offsets:
#	150
#	24597
#	35843
#	58863
#	80660
#	104398
#	119386
#	132953
#	156172
#	169094
#	181326
#
# Disc length: 2837 seconds
#
# Revision: 1
# Processed by: cddbd v1.5.2PL0 Copyright (c) Steve Scherf et al.
# Submitted via: audiograbber 1.83.01
#
DISCID=960b130b
DTITLE=Hip Shakin Mama and The Leg Men - Reclaim Your Land
DYEAR=2011
DGENRE=Blues
TTITLE0=Rooster Stew
TTITLE1=Devious (Scheming Little Thief)
TTITLE2=Reclaim Your Land
TTITLE3=My Claws
TTITLE4=She Doesn't Want You
TTITLE5=Show Me No Mercy
TTITLE6=I've Been Loving You Too Long
TTITLE7=(Funkalicious) Sugar Blue
TTITLE8=Wanker Blues
TTITLE9=Don't Put Me Down Too Long
TTITLE10=Bigger Man
EXTD=All Songs by Shelley Lynne Hardinge (Canada's Hip Shakin Mama!]\nSocan and
EXTD=BMI registered 2011, Copyright 2009.\nThe Leg Men are: Gerry Perkin (Guit
EXTD=ar) - Dave Oakey (Harp) - Rob Lamonica (Hammond, Keys) - Phil Nevile (Keys) - 
EXTD=Doug Sullivan (Drums) -  Richie Hardinge (Bass) - Adrian Kuryliw (Bass).\nPr
EXTD=oduced by Del Clark of Studio One Recording.\nRecorded, Mixed and Mastered
EXTD=at Studio One, Brandon, Manitoba Canada.\nManufactured by Hip Shakin Musi
EXTD=c Canada Ltd.\nMade In Canada\n
EXTT0=
EXTT1=
EXTT2=
EXTT3=
EXTT4=
EXTT5=
EXTT6=
EXTT7=
EXTT8=
EXTT9=
EXTT10=
PLAYORDER=
